<svg xmlns="http://www.w3.org/2000/svg" xml:space="preserve" width="1500" height="474" data-id="lg_N1xTbXp8eqxe6x2BRb" data-version="1" viewBox="0 0 1500 474"><g data-padding="20"><g transform="translate(10 8.464)scale(.96429)"><rect width="304.954" height="214.336" x="148.677" y="-240.826" fill="#fff" rx="0" ry="0" transform="translate(399.55 401.19)scale(1.22)"/><rect width="457.374" height="100" x="72.467" y="-166.473" fill="#d6ffff" rx="0" ry="0" transform="matrix(1.22 0 0 1.4 399.22 566.94)"/><rect width="337.635" height="100" x="-52.344" y="251.154" fill="#ffdc00" rx="0" ry="0" transform="matrix(0 -1.4 1.22 0 618.95 399.53)"/><rect width="333.829" height="100" x="-50.441" y="251.154" fill="#00d877" rx="0" ry="0" transform="matrix(0 -1.4 1.22 0 181.05 402.21)"/><rect width="457.374" height="100" x="72.467" y="-166.473" fill="#ff641c" rx="0" ry="0" transform="matrix(1.22 0 0 1.4 399.22 234.48)"/><rect width="89.628" height="99.44" x="322.593" y="-212.782" fill="none" rx="0" ry="0" transform="translate(400.72 234.9)"/><path d="M767.617 99.858q-20.15 0-29.65-8.75-9.51-8.76-9.51-24.6 0-15.66 9.46-24.46t29.7-8.8q20.33 0 29.79 8.8t9.46 24.46q0 15.93-9.41 24.64-9.42 8.71-29.84 8.71m0-17.95q9.77 0 14.08-3.74 4.32-3.74 4.32-11.66 0-7.74-4.32-11.53-4.31-3.78-14.08-3.78-9.68 0-13.99 3.78-4.31 3.79-4.31 11.53 0 7.83 4.31 11.62 4.31 3.78 13.99 3.78m130.733 84.689c-11.323 0-22.308.81-32.769 2.356a108.16 49.92 0 0 0-65.555.007 107.315 49.53 0 0 0-65.538-.007 108.16 49.92 0 0 0-65.572 0 108.16 49.92 0 0 0-32.786-2.356c-70.744 0-128.322 32.003-128.322 71.33s57.578 71.332 128.34 71.332c11.322 0 22.307-.82 32.785-2.356a108.16 49.92 0 0 0 65.572 0 108.16 49.92 0 0 0 65.538-.007 107.484 49.608 0 0 0 65.555.007 108.16 49.92 0 0 0 32.77 2.356c70.776 0 128.338-32.003 128.338-71.331s-57.579-71.331-128.356-71.331m-65.538 3.845q10.005 0 19.536.897a118.3 54.6 0 0 0-19.536 5.289 118.3 54.6 0 0 0-19.553-5.29 98.02 45.24 0 0 1 19.553-.896m-120.025 67.486c0-14.368 8.028-27.698 21.7-38.657 13.672 10.96 21.682 24.29 21.682 38.657s-8.027 27.706-21.682 38.665c-13.69-10.96-21.7-24.297-21.7-38.665m16.782 42.33a133.51 61.62 0 0 1-27.868 14.173c-32.786-12.05-54.486-32.885-54.486-56.51 0-23.627 21.7-44.445 54.486-56.504a133.51 61.62 0 0 1 27.868 14.173c-15.785 11.848-25.114 26.496-25.114 42.322s9.346 30.49 25.114 42.33Zm34.932-42.33c0-15.826-9.346-30.482-25.096-42.323a131.82 60.84 0 0 1 27.85-14.18 133.51 61.62 0 0 1 27.87 14.18c-15.769 11.848-25.098 26.497-25.098 42.323s9.346 30.49 25.097 42.33a133.51 61.62 0 0 1-27.868 14.173 133.51 61.62 0 0 1-27.868-14.18c15.784-11.848 25.113-26.497 25.113-42.323m13.841 0c0-14.368 8.028-27.698 21.7-38.657 13.672 10.96 21.682 24.29 21.682 38.657s-8.027 27.706-21.682 38.665c-13.69-10.96-21.7-24.297-21.7-38.665m51.714 0c0-15.826-9.345-30.482-25.096-42.323a131.82 60.84 0 0 1 27.85-14.18c32.787 12.059 54.47 32.892 54.47 56.51s-21.683 44.453-54.47 56.512a133.51 61.62 0 0 1-27.867-14.18c15.784-11.85 25.113-26.497 25.113-42.323ZM800.026 173a108.16 49.92 0 0 1 25.907 6.068 141.96 65.52 0 0 0-25.908 13.073 141.96 65.52 0 0 0-25.908-13.073A108.16 49.92 0 0 1 800.025 173m-32.77-2.56q9.99 0 19.554.898a118.3 54.6 0 0 0-19.536 5.289 118.3 54.6 0 0 0-19.554-5.29 98.02 45.24 0 0 1 19.537-.896m-6.862 8.635a141.96 65.52 0 0 0-25.907 13.065 141.96 65.52 0 0 0-25.925-13.073A108.16 49.92 0 0 1 734.487 173a108.16 49.92 0 0 1 25.907 6.076m-58.693-8.635q9.988 0 19.553.897a118.3 54.6 0 0 0-19.553 5.289 118.3 54.6 0 0 0-19.554-5.29 98.02 45.24 0 0 1 19.554-.896m-6.862 8.635c-33.749 12.854-55.939 34.445-55.939 58.85s22.19 45.998 55.94 58.852a108.16 49.92 0 0 1-25.908 6.076c-50.312-8.034-87.238-34.101-87.238-64.927S618.62 181.035 668.932 173a108.16 49.92 0 0 1 25.907 6.076m-58.692 126.337c-66.164 0-120.024-30.272-120.024-67.486s53.86-67.486 120.024-67.486q9.987 0 19.553.897c-48.114 10.296-82.354 36.263-82.354 66.589s34.24 56.293 82.354 66.589a98.02 45.24 0 0 1-19.553.897m65.555 0q-9.988 0-19.554-.897a118.3 54.6 0 0 0 19.554-5.29 118.3 54.6 0 0 0 19.553 5.29 98.02 45.24 0 0 1-19.553.897m6.861-8.627a141.96 65.52 0 0 0 25.925-13.073 140.27 64.74 0 0 0 25.907 13.065 108.16 49.92 0 0 1-25.907 6.076 108.16 49.92 0 0 1-25.925-6.068m58.694 8.627q-10.005 0-19.537-.897a118.3 54.6 0 0 0 19.554-5.29 118.3 54.6 0 0 0 19.536 5.29 98.02 45.24 0 0 1-19.553.897m6.861-8.627a141.96 65.52 0 0 0 25.908-13.073 141.96 65.52 0 0 0 25.908 13.073 108.16 49.92 0 0 1-25.908 6.068 108.16 49.92 0 0 1-25.908-6.068m58.694 8.627q-9.988 0-19.553-.897a118.3 54.6 0 0 0 19.553-5.29 118.3 54.6 0 0 0 19.536 5.29 98.02 45.24 0 0 1-19.536.897m32.752-2.56a108.16 49.92 0 0 1-25.908-6.067c33.767-12.862 55.94-34.453 55.94-58.86s-22.173-45.996-55.94-58.858A108.16 49.92 0 0 1 865.564 173c50.311 8.034 87.255 34.11 87.255 64.927s-36.96 56.893-87.255 64.927m32.786 2.559q-9.988 0-19.553-.897c48.131-10.29 82.37-36.263 82.37-66.59s-34.256-56.3-82.387-66.588a98.02 45.24 0 0 1 19.553-.897c66.18 0 120.024 30.28 120.024 67.486s-53.843 67.486-120.024 67.486Z"/><rect width="306.537" height="85.021" x="214.139" y="-205.573" fill="none" rx="0" ry="0" transform="translate(400.72 568.86)"/><path d="M649.957 369.528h10.34q-.31 7.43-.31 15.97 0 8.53.31 15.97h-10.34v-11.97h-16.19v11.97h-10.34q.35-8.54.35-15.97 0-7.44-.35-15.97h10.34v11.96h16.19Zm24.24 19.31v4.58q16.72-.09 24.24-.49-.31 1.81-.37 3.72-.07 1.92-.07 4.82h-34.19q.35-8.54.35-15.97 0-7.44-.35-15.97h34.19v7.96h-23.8v4.22q2.11.05 6.24.05 7 0 14.48-.27v7.57q-7.48-.26-14.48-.26-4.13 0-6.24.04m38.5-19.31v23.05q12.76-.09 21.12-.44-.58 2.25-.71 4.31-.13 2.07-.13 5.02h-31.02q.35-8.54.35-15.97 0-7.44-.35-15.97Zm22.88 28.16q1.49-2.25 2.48-4.18.99-1.94 1.92-4.49 3.12 1.8 7.26 2.81 4.13 1.02 7.7 1.02 3.65 0 5.14-.64 1.5-.64 1.5-1.39 0-2.68-8.18-2.68-8.98 0-13.03-1.87t-4.05-6.05q0-5.94 4.93-8.76 4.93-2.81 12.81-2.81 4.57 0 9.39 1.16 4.82 1.17 8.69 3.19-1.28 2.91-2.68 7.09-.27.88-.44 1.32-2.25-1.81-6.78-3.02t-8.01-1.21q-4.18 0-5.63.55t-1.45 1.61q0 1.05 2 1.69t5.79.64q9.32 0 13.55 2.13 4.22 2.14 4.22 6.54 0 6.16-4.49 8.86-4.48 2.71-13.59 2.71-4.89 0-9.95-1.08t-9.1-3.14m66.22-28.16v8.75q-5.24-.26-7.75-.31v15.05q2.55-.04 7.75-.31v8.76h-25.57v-8.76q5.06.27 7.7.31v-15.05q-2.64.05-7.7.31v-8.75Zm29.65.04h10.78q-.31 7.44-.31 15.93 0 8.53.31 15.97h-15.75l-10.65-24.02.79 24.02h-11.3q.35-8.54.35-15.97 0-7.39-.35-15.93h16.19l10.69 24.68Zm51.09 31.9h-13.82q-2.07-3.74-6.86-11.44l-5.15 5.1v6.34h-10.96q.35-8.54.35-15.97 0-7.44-.35-15.97h10.96v12.89q8.09-8.01 11.53-12.89h14.25l-13.86 13.72q3.08 4.32 6.93 9.38t6.98 8.84m29.08-31.94v8.75q-5.24-.26-7.74-.31v15.05q2.55-.04 7.74-.31v8.76h-25.56v-8.76q5.06.27 7.7.31v-15.05q-2.64.05-7.7.31v-8.75Zm-199.54 67.68q-9.94 0-14.65-4.22-4.71-4.23-4.71-12.06 0-7.87 4.71-12.45t14.65-4.58q13.9 0 18.61 9.55-3.96 1.37-9.28 4.09-1.28-2.46-4.03-3.65t-5.61-1.19q-4.22 0-6.29 2.23-2.07 2.22-2.07 5.47 0 3.52 2.22 5.75 2.23 2.22 6.8 2.22 3.65 0 5.81-1.21t3.17-3.85q3.61 1.93 9.24 4.35-2.2 5.33-7.35 7.44t-11.22 2.11m47.7-32.38v8.75q-5.24-.26-7.75-.3v15.04q2.55-.04 7.75-.3v8.75h-25.57v-8.75q5.06.26 7.7.3v-15.04q-2.64.04-7.7.3v-8.75Zm41.32 0v9.24q-6.91-.22-13.42-.27v22.97h-11v-22.97q-6.55.05-13.37.27v-9.24Zm30.7 0h11.97l-.83 1.27q-4.71 7.31-8.08 12.92-3.36 5.61-5.61 10.32v7.43h-11.48v-8.18q-1.63-3.3-3.83-6.8t-6.25-9.61q-3.17-4.67-4.84-7.35h12.32q1.32 2.68 4.31 7.96 3 5.37 4.1 7.57 1.54-3.21 4.13-7.88 3.04-5.45 4.09-7.65"/><rect width="59.052" height="21.47" x="337.881" y="-173.797" fill="none" rx="0" ry="0" transform="translate(181.33 568.6)"/><path d="M525.357 405.548v1.98q7.22-.04 10.47-.21-.13.78-.16 1.61-.03.82-.03 2.08h-14.76q.15-3.69.15-6.9t-.15-6.9h14.76v3.44h-10.28v1.83q.91.01 2.7.01 3.02 0 6.25-.11v3.27q-3.23-.12-6.25-.12-1.79 0-2.7.02m11.99 3.82q.65-.97 1.07-1.8.43-.84.83-1.94 1.35.78 3.14 1.22 1.78.43 3.32.43 1.58 0 2.22-.27.65-.28.65-.6 0-1.16-3.53-1.16-3.88 0-5.63-.81t-1.75-2.61q0-2.57 2.13-3.78 2.13-1.22 5.53-1.22 1.98 0 4.06.51 2.08.5 3.75 1.37-.55 1.26-1.16 3.06-.11.38-.19.57-.97-.78-2.93-1.3-1.95-.52-3.45-.52-1.81 0-2.44.24-.62.23-.62.69t.86.73q.87.28 2.5.28 4.03 0 5.85.92 1.83.92 1.83 2.82 0 2.66-1.94 3.83t-5.87 1.17q-2.11 0-4.3-.47-2.18-.46-3.93-1.36m33.12-12.16v3.99q-2.99-.09-5.8-.11v9.92h-4.75v-9.92q-2.83.02-5.77.11v-3.99Zm3.35 13.99q-.83 0-1.42-.6t-.59-1.44q0-.83.59-1.42t1.42-.59q.82 0 1.42.6t.6 1.41q0 .84-.6 1.44t-1.42.6"/><rect width="60.349" height="21.47" x="337.233" y="-173.797" fill="none" rx="0" ry="0" transform="translate(621.04 568.6)"/><path d="M967.607 397.018v10.47q1.71-.04 2.53-.07v3.59h-10.05v-3.59q2.05.07 3.09.07v-6.55q-.68 1.5-2.79 1.93-.06-2.24-.42-4.08 1.52-.21 2.12-.52.6-.32.93-.7t.45-.51v-.04Zm10.98 0q2.13 0 3.79.85 1.67.84 2.59 2.34.92 1.51.92 3.42 0 3.82-2.12 5.7-2.12 1.87-5.71 1.87-4.37 0-6.9-2.21 1.14-1.21 2.09-2.68.74.61 2.11.94 1.37.34 2.49.34 1.65 0 2.78-.83 1.12-.83 1.36-2.37.02-.09.02-.26-.91 1.33-2.41 1.95-1.5.61-3.06.61-1.52 0-2.75-.55-1.24-.55-1.94-1.51-.71-.96-.71-2.15 0-1.73.98-2.97.98-1.23 2.67-1.86t3.8-.63m-.19 6.69q.72 0 1.34-.22t.99-.58.37-.78q0-.64-.79-1.1-.79-.45-1.91-.45t-1.91.45q-.79.46-.79 1.1 0 .67.79 1.12.79.46 1.91.46m16.46-6.69q2.12 0 3.79.85 1.66.84 2.58 2.34.92 1.51.92 3.42 0 3.82-2.12 5.7-2.11 1.87-5.71 1.87-4.37 0-6.89-2.21 1.14-1.21 2.09-2.68.74.61 2.11.94 1.36.34 2.49.34 1.65 0 2.77-.83t1.37-2.37q.02-.09.02-.26-.92 1.33-2.42 1.95-1.5.61-3.06.61-1.52 0-2.75-.55-1.24-.55-1.94-1.51t-.7-2.15q0-1.73.98-2.97.98-1.23 2.67-1.86t3.8-.63m-.19 6.69q.72 0 1.34-.22.61-.22.98-.58t.37-.78q0-.64-.78-1.1-.79-.45-1.91-.45t-1.91.45q-.79.46-.79 1.1 0 .67.79 1.12.79.46 1.91.46m8.05-2.75v-3.77h13.76v2.45q-3.73 5.65-5.76 11.37h-5.13q2.07-5.15 5.45-10.24-5.26 0-8.32.19"/></g><path fill="transparent" stroke="transparent" d="M470 0h560v474H470z"/></g></svg>